<?xml version="1.0" encoding="utf-8"?>
<!-- Generator: Adobe Illustrator 16.0.0, SVG Export Plug-In . SVG Version: 6.00 Build 0)  -->
<!DOCTYPE svg PUBLIC "-//W3C//DTD SVG 1.1//EN" "http://www.w3.org/Graphics/SVG/1.1/DTD/svg11.dtd">
<svg version="1.1" id="Bold" xmlns="http://www.w3.org/2000/svg" xmlns:xlink="http://www.w3.org/1999/xlink" x="0px" y="0px"
	 width="512px" height="512px" viewBox="0 0 512 512" enable-background="new 0 0 512 512" xml:space="preserve">
<path fill="#7289DA" d="M76.374,452.182h304.192l-14.528-47.04l34.752,29.823l31.851,28.545L490.667,512V52.8
	C489.216,24.256,464.64,0,434.176,0L76.48,0.064c-30.443,0-55.146,24.299-55.146,52.843V399.36
	C21.333,429.461,45.995,452.182,76.374,452.182L76.374,452.182z M301.397,121.237l-0.704,0.256l0.256-0.256H301.397z
	 M138.603,148.31c39.104-28.459,75.35-27.094,75.35-27.094l2.922,2.88c-47.851,11.413-69.546,32.789-69.546,32.789
	s5.803-2.837,15.936-7.168c64.448-25.344,134.827-23.509,199.978,8.576c0,0-21.738-19.989-66.645-32.79l3.968-3.904
	c6.208,0.021,39.062,1.173,74.219,26.88c0,0,39.339,67.2,39.339,149.76c-1.302-1.579-24.406,35.541-83.861,36.821
	c0,0-10.07-11.393-17.238-21.334c34.773-9.983,47.787-29.952,47.787-29.952c-11.413,7.189-21.824,11.457-30.271,15.724
	c-12.992,5.717-26.006,8.533-38.998,11.413c-61.525,9.984-96.063-6.72-128.704-19.969l-11.157-5.674
	c0,0,12.992,19.968,46.378,29.952c-8.768,10.005-17.451,21.376-17.451,21.376c-59.435-1.408-81.109-38.528-81.109-38.528
	C99.499,215.381,138.603,148.31,138.603,148.31L138.603,148.31z"/>
<path fill="#7289DA" d="M305.237,272.448c15.168,0,27.521-12.8,27.521-28.587c0-15.68-12.289-28.48-27.521-28.48v0.064
	c-15.104,0-27.478,12.757-27.521,28.544C277.717,259.648,290.069,272.448,305.237,272.448z"/>
<path fill="#7289DA" d="M206.72,272.448c15.168,0,27.52-12.8,27.52-28.587c0-15.68-12.267-28.48-27.435-28.48l-0.085,0.064
	c-15.168,0-27.52,12.757-27.52,28.544C179.2,259.648,191.552,272.448,206.72,272.448z"/>
</svg>
